<!-- Generator: Adobe Illustrator 19.1.0, SVG Export Plug-In  -->
<svg version="1.1"
	 xmlns="http://www.w3.org/2000/svg" xmlns:xlink="http://www.w3.org/1999/xlink" xmlns:a="http://ns.adobe.com/AdobeSVGViewerExtensions/3.0/"
	 x="0px" y="0px" width="17.9px" height="19.9px" viewBox="0 0 17.9 19.9" style="enable-background:new 0 0 17.9 19.9;"
	 xml:space="preserve">
<style type="text/css">
	.st0{fill:#393939;}
</style>
<defs>
</defs>
<path class="st0" d="M2.9,12.9c0.8,0,1.5-0.3,2-0.8l7.1,4.1c-0.1,0.2-0.1,0.5-0.1,0.7c0,1.7,1.3,3,3,3s3-1.3,3-3s-1.3-3-3-3
	c-0.8,0-1.5,0.3-2,0.8l-7.1-4.1c0.1-0.2,0.1-0.5,0.1-0.7s0-0.5-0.1-0.7L12.9,5c0.5,0.5,1.2,0.8,2,0.8c1.6,0,2.9-1.3,2.9-2.9
	S16.5,0,14.9,0S12,1.3,12,2.9c0,0.2,0,0.4,0.1,0.7L5,7.8C4.5,7.3,3.8,7,3,7c-1.7,0-3,1.3-3,3S1.2,12.9,2.9,12.9L2.9,12.9z"/>
</svg>
