<?xml version="1.0" encoding="utf-8"?>
<!-- Generator: Adobe Illustrator 20.1.0, SVG Export Plug-In . SVG Version: 6.00 Build 0)  -->
<svg version="1.1" id="Layer_1" xmlns="http://www.w3.org/2000/svg" xmlns:xlink="http://www.w3.org/1999/xlink" x="0px" y="0px"
	 viewBox="0 0 100 100" style="enable-background:new 0 0 100 100;" xml:space="preserve">
<path d="M6.5,50c0,0.6,0.3,1.1,0.7,1.4l10.3,7.3l-5.3,11.5c-0.2,0.5-0.2,1.1,0.1,1.6s0.8,0.8,1.4,0.9l12.6,1.1l1.1,12.6
	c0.1,0.6,0.4,1.1,0.9,1.4s1.1,0.3,1.6,0.1l11.5-5.3l7.3,10.3c0.3,0.5,0.9,0.7,1.4,0.7c0.6,0,1.1-0.3,1.4-0.7l7.3-10.3l11.5,5.3
	c0.5,0.2,1.1,0.2,1.6-0.1c0.5-0.3,0.8-0.8,0.9-1.4l1.1-12.6l12.6-1.1c0.6-0.1,1.1-0.4,1.4-0.9s0.3-1.1,0.1-1.6l-5.3-11.5L93,51.4
	c0.5-0.3,0.7-0.9,0.7-1.4s-0.3-1.1-0.7-1.4l-10.3-7.3L88,29.8c0.2-0.5,0.2-1.1-0.1-1.6s-0.8-0.8-1.4-0.9l-12.6-1.1l-1.1-12.6
	c-0.1-0.6-0.4-1.1-0.9-1.4c-0.5-0.3-1.1-0.3-1.6-0.1l-11.5,5.3L51.4,7.2c-0.7-0.9-2.2-0.9-2.8,0l-7.3,10.3l-11.5-5.3
	c-0.5-0.2-1.1-0.2-1.6,0.1s-0.8,0.8-0.9,1.4l-1.1,12.6l-12.6,1.1c-0.6,0.1-1.1,0.4-1.4,0.9c-0.3,0.5-0.3,1.1-0.1,1.6l5.3,11.5
	L7.2,48.6C6.7,48.9,6.5,49.4,6.5,50z M53.7,69.3c-1,1-2.3,1.6-3.7,1.6s-2.7-0.6-3.7-1.6s-1.5-2.4-1.5-3.9c0-1.4,0.6-2.8,1.5-3.9
	c1.9-1.9,5.5-1.9,7.4,0c1,1,1.5,2.4,1.5,3.9S54.7,68.3,53.7,69.3z M44.8,34.6c0-3,2.3-5.5,5.2-5.5s5.2,2.4,5.2,5.5v17
	c0,3-2.3,5.5-5.2,5.5s-5.2-2.4-5.2-5.5V34.6z"/>
</svg>
