<!-- Generator: Adobe Illustrator 19.1.0, SVG Export Plug-In  -->
<svg version="1.1"
	 xmlns="http://www.w3.org/2000/svg" xmlns:xlink="http://www.w3.org/1999/xlink" xmlns:a="http://ns.adobe.com/AdobeSVGViewerExtensions/3.0/"
	 x="0px" y="0px" width="28.8px" height="24.6px" viewBox="0 0 28.8 24.6" style="enable-background:new 0 0 28.8 24.6;"
	 xml:space="preserve">
<style type="text/css">
	.st0{fill:#F47820;}
	.st1{fill:#FFFFFF;}
</style>
<defs>
</defs>
<polygon class="st0" points="14.4,0 0,24.6 28.8,24.6 "/>
<path class="st1" d="M14.5,17h-0.2c-0.8,0-1.4-0.6-1.4-1.4v-3.4c0-0.8,0.6-1.4,1.4-1.4h0.2c0.8,0,1.4,0.6,1.4,1.4v3.4
	C15.9,16.3,15.3,17,14.5,17z"/>
<path class="st1" d="M14.5,21.2h-0.2c-0.8,0-1.4-0.6-1.4-1.4v-0.2c0-0.8,0.6-1.4,1.4-1.4h0.2c0.8,0,1.4,0.6,1.4,1.4v0.2
	C15.9,20.6,15.3,21.2,14.5,21.2z"/>
</svg>
