<?xml version="1.0" encoding="utf-8"?>
<!-- Generator: Adobe Illustrator 19.1.0, SVG Export Plug-In . SVG Version: 6.00 Build 0)  -->
<svg version="1.1" id="Layer_1" xmlns="http://www.w3.org/2000/svg" xmlns:xlink="http://www.w3.org/1999/xlink" x="0px" y="0px"
	 viewBox="-349 351 100 100" style="enable-background:new -349 351 100 100;" xml:space="preserve">
<style type="text/css">
	.st0{fill:#FFFFFF;}
</style>
<g>
	<path class="st0" d="M-303.1,362.7l-25.9,25.9c-2.2,2.2-2.2,5.9,0,8.1c2.2,2.2,5.9,2.2,8.1,0l16.2-16.2v54.9c0,3.2,2.6,5.7,5.7,5.7
		s5.7-2.6,5.7-5.7v-54.9l16.2,16.2c2.2,2.2,5.9,2.2,8.1,0c1.1-1.1,1.7-2.6,1.7-4c0-1.5-0.6-2.9-1.7-4l-25.9-25.9
		C-297.2,360.5-300.8,360.5-303.1,362.7z"/>
</g>
</svg>
