<?xml version="1.0" encoding="utf-8"?>
<!-- Generator: Adobe Illustrator 19.2.1, SVG Export Plug-In . SVG Version: 6.00 Build 0)  -->
<svg version="1.1" id="Layer_1" xmlns="http://www.w3.org/2000/svg" xmlns:xlink="http://www.w3.org/1999/xlink" x="0px" y="0px"
	 width="256px" height="256px" viewBox="0 0 256 256" style="enable-background:new 0 0 256 256;" xml:space="preserve">
<style type="text/css">
	.st0{fill:none;}
	.st1{fill:#FFFFFF;}
</style>
<g>
	<path class="st0" d="M148.2,109.4c0,2.7,2.2,5.1,4.9,5.1h12.5c2.7,0,4.9-2.4,4.9-5.1c0-2.7-2.2-5.1-4.9-5.1H153
		C150.2,104.3,148.2,106.6,148.2,109.4z"/>
	<path class="st0" d="M191,79.3h-26.8V63.9c0-2.7-2.4-5-5.1-5H95.7c-2.7,0-5.1,2.3-5.1,5v15.4H63.9c-2.7,0-5,2.5-5,5.3v85.6
		c0,2.5,2.4,5.3,5,5.3h26.8V191c0,2.7,2.4,5,5.1,5h63.5c2.7,0,5.1-2.3,5.1-5v-15.4h26.8c2.7,0,5-2.5,5-5.3V84.6
		C196,81.9,193.7,79.3,191,79.3z M100.8,69.2h53.3v10.2h-53.3V69.2z M154.1,185.8h-53.3v-39.6h53.3V185.8z M185.8,165.4h-21.5v-19.2
		h8.3c2.7,0,4.9-1.9,4.9-4.5c0-2.7-2.2-4.5-4.9-4.5h-13.3H95.7H82.4c-2.7,0-4.9,1.9-4.9,4.5c0,2.7,2.2,4.5,4.9,4.5h8.2v19.2H69.2
		V89.5h26.6h63.5h26.5V165.4z"/>
	<path class="st1" d="M128,0C57.3,0,0,57.3,0,128s57.3,128,128,128s128-57.3,128-128S198.7,0,128,0z M196,170.3c0,2.7-2.3,5.3-5,5.3
		h-26.8V191c0,2.7-2.4,5-5.1,5H95.7c-2.7,0-5.1-2.3-5.1-5v-15.4H63.9c-2.5,0-5-2.7-5-5.3V84.6c0-2.7,2.3-5.3,5-5.3h26.8V63.9
		c0-2.7,2.4-5,5.1-5h63.5c2.7,0,5.1,2.3,5.1,5v15.4h26.8c2.7,0,5,2.5,5,5.3L196,170.3L196,170.3z"/>
	<path class="st1" d="M95.7,89.5H69v75.9h21.5v-19.2h-8.2c-2.7,0-4.9-1.9-4.9-4.5c0-2.7,2.2-4.5,4.9-4.5h13.2h63.6h13.3
		c2.7,0,4.9,1.9,4.9,4.5c0,2.7-2.2,4.5-4.9,4.5h-8.2v19.2h21.5V89.5h-26.6H95.7z M170.3,109.4c0,2.7-2.2,5.1-4.9,5.1h-12.5
		c-2.7,0-4.9-2.4-4.9-5.1c0-2.7,2.2-5.1,4.9-5.1h12.5C168.1,104.3,170.3,106.6,170.3,109.4z"/>
	<rect x="100.8" y="69.2" class="st1" width="53.3" height="10.2"/>
	<rect x="100.8" y="146.1" class="st1" width="53.3" height="39.6"/>
</g>
</svg>
