<?xml version="1.0" encoding="utf-8"?>
<!-- Generator: Adobe Illustrator 21.1.0, SVG Export Plug-In . SVG Version: 6.00 Build 0)  -->
<svg version="1.1" id="Layer_1" xmlns="http://www.w3.org/2000/svg" xmlns:xlink="http://www.w3.org/1999/xlink" x="0px" y="0px"
	 viewBox="0 0 295.4 295.4" style="enable-background:new 0 0 295.4 295.4;" xml:space="preserve">
<style type="text/css">
	.st0{fill:#FFFFFF;}
</style>
<g>
	<g>
		<path class="st0" d="M147.7,295.4C66.3,295.4,0,229.1,0,147.7S66.3,0,147.7,0c47.9,0,93.3,23.7,121.4,63.4l7.3,10.3L147.7,202.4
			l-59.8-59.8l21.2-21.2l38.6,38.6l89.2-89.2c-22.6-25.8-55.1-40.9-89.2-40.9C82.8,29.9,30,82.7,30,147.6s52.8,117.7,117.7,117.7
			s117.7-52.8,117.7-117.7c0-6.7,0-12.1-1.1-17.7l29.4-5.9c1.7,8.6,1.7,16.2,1.7,23.6C295.4,229.1,229.1,295.4,147.7,295.4z"/>
	</g>
</g>
</svg>
