<?xml version="1.0" encoding="utf-8"?>
<!-- Generator: Adobe Illustrator 22.0.1, SVG Export Plug-In . SVG Version: 6.00 Build 0)  -->
<svg version="1.1" id="Layer_1" xmlns="http://www.w3.org/2000/svg" xmlns:xlink="http://www.w3.org/1999/xlink" x="0px" y="0px"
	 viewBox="0 0 190.7 192.8" style="enable-background:new 0 0 190.7 192.8;" xml:space="preserve">
<style type="text/css">
	.st0{fill:#2D234B;stroke:#172C38;stroke-miterlimit:10;}
	.st1{fill:#FFFFFF;}
</style>
<g>
	<path class="st0" d="M94.6,164c-37.1,0-67.7-30.2-67.7-67.7s30.2-67.7,67.7-67.7c22,0,42.7,10.8,55.6,28.9l3.4,4.7l-59.1,59.5
		L67.4,94.6l9.5-9.5l17.7,17.7l41-41c-10.3-11.6-25-18.5-41-18.5c-29.8,0-53.9,24.1-53.9,53.9s24.1,53.9,53.9,53.9
		s53.9-24.1,53.9-53.9c0-3,0-5.6-0.4-8.2l13.4-2.6c0.9,3.9,0.9,7.3,0.9,10.8C162.3,133.8,132.1,164,94.6,164z"/>
</g>
<g>
	<path class="st1" d="M95,192.1v-13.8c6.5,0,12.9-0.9,19.4-2.6l3.4,13.4C110.1,190.8,102.8,192.1,95,192.1z M72.2,189
		c-7.3-1.7-14.7-4.7-21.6-8.2l6.5-12.1c5.6,3,12.1,5.2,18.5,6.9L72.2,189z M139,180.9l-6.5-12.1c5.6-3,11.2-6.9,16-11.2l9.1,10.3
		C152.4,173.1,145.9,177.4,139,180.9z M31.6,168.3c-5.6-5.2-10.8-10.8-15.1-17.2l11.2-7.8c3.9,5.2,8.2,10.3,12.9,14.7L31.6,168.3z
		 M173.1,150.7l-11.2-7.8c3.9-5.6,6.9-11.2,9.1-17.2l12.9,4.7C181.3,137.7,177.4,144.2,173.1,150.7z M5.8,130.8
		c-2.6-7.3-4.7-14.7-5.6-22.4l13.8-1.7c0.9,6.5,2.6,12.9,4.7,19L5.8,130.8z M189.5,108l-13.8-1.7c0.4-3,0.4-6.5,0.4-9.9
		c0-3.4,0-6.5-0.4-9.9l13.8-1.7c0.4,3.9,0.9,7.8,0.9,11.6C189.9,100.6,189.9,104.5,189.5,108z M14,87.3L0.2,85.6
		C1,77.8,2.8,70.5,5.8,63.1l12.9,4.7C16.1,74.3,14.4,80.8,14,87.3z M170.9,67.9c-2.2-6-5.6-12.1-9.1-17.2l11.2-7.8
		c4.3,6.5,7.8,12.9,10.8,20.3L170.9,67.9z M27.3,50.6l-11.2-7.8c4.3-6.5,9.5-12.1,15.1-17.2L40.3,36C35.5,40.3,31.2,45,27.3,50.6z
		 M148.9,35.5c-4.7-4.3-10.3-8.2-16-11.2l6.5-12.1c6.9,3.4,12.9,7.8,19,12.9L148.9,35.5z M56.7,24.7l-6.5-12.1
		C57.1,9.2,64,6.2,71.7,4.5l3.4,13.4C68.7,19.1,62.3,21.7,56.7,24.7z M114.4,17.4c-6.5-1.7-12.9-2.2-19.4-2.2h-0.4V1.5H95
		c7.8,0,15.5,0.9,22.9,2.6L114.4,17.4z"/>
</g>
</svg>
