<?xml version="1.0" encoding="utf-8"?>
<!-- Generator: Adobe Illustrator 22.0.1, SVG Export Plug-In . SVG Version: 6.00 Build 0)  -->
<svg version="1.1" id="Layer_1" xmlns="http://www.w3.org/2000/svg" xmlns:xlink="http://www.w3.org/1999/xlink" x="0px" y="0px"
	 viewBox="0 0 25.8 25.9" style="enable-background:new 0 0 25.8 25.9;" xml:space="preserve">
<style type="text/css">
	.st0{fill:#162C38;stroke:#162C38;stroke-miterlimit:10;}
	.st1{fill:#162C38;}
</style>
<g>
	<g>
		<path class="st0" d="M12.9,22.1c-5.1,0-9.2-4.1-9.2-9.2s4.1-9.2,9.2-9.2c3,0,5.8,1.5,7.5,3.9l0.5,0.6l-8,8l-3.7-3.7l1.3-1.3
			l2.4,2.4l5.5-5.5C17,6.5,15,5.6,12.9,5.6c-4,0-7.3,3.3-7.3,7.3s3.3,7.3,7.3,7.3s7.3-3.3,7.3-7.3c0-0.4,0-0.8-0.1-1.1l1.8-0.4
			c0.1,0.5,0.1,1,0.1,1.5C22.1,18,17.9,22.1,12.9,22.1z"/>
	</g>
	<g>
		<path class="st1" d="M12.9,25.9V24c0.9,0,1.8-0.1,2.7-0.3l0.4,1.8C15,25.7,14,25.9,12.9,25.9z M9.8,25.5c-1-0.2-2-0.6-2.9-1.1
			l0.9-1.7c0.8,0.4,1.6,0.7,2.5,0.9L9.8,25.5z M18.9,24.4L18,22.8c0.8-0.4,1.5-0.9,2.2-1.5l1.2,1.4C20.7,23.3,19.8,23.9,18.9,24.4z
			 M4.3,22.6c-0.8-0.7-1.5-1.5-2.1-2.3l1.5-1.1c0.5,0.7,1.1,1.4,1.8,2L4.3,22.6z M23.6,20.2l-1.5-1.1c0.5-0.7,0.9-1.5,1.2-2.4
			l1.7,0.7C24.6,18.5,24.1,19.4,23.6,20.2z M0.8,17.5c-0.4-1-0.6-2-0.8-3l1.8-0.2c0.1,0.9,0.3,1.8,0.6,2.6L0.8,17.5z M25.7,14.4
			l-1.8-0.2c0.1-0.4,0.1-0.9,0.1-1.3c0-0.5,0-0.9-0.1-1.3l1.8-0.2c0.1,0.5,0.1,1,0.1,1.6C25.8,13.4,25.8,13.9,25.7,14.4z M1.9,11.6
			L0,11.4c0.1-1,0.4-2.1,0.7-3l1.7,0.7C2.2,9.8,2,10.7,1.9,11.6z M23.3,9c-0.3-0.8-0.7-1.6-1.2-2.4l1.5-1.1c0.6,0.9,1.1,1.8,1.5,2.8
			L23.3,9z M3.7,6.6L2.2,5.5c0.6-0.9,1.3-1.6,2.1-2.3l1.2,1.4C4.8,5.2,4.2,5.9,3.7,6.6z M20.2,4.6C19.5,4,18.8,3.5,18,3.1l0.9-1.6
			c0.9,0.5,1.8,1.1,2.6,1.8L20.2,4.6z M7.7,3.1L6.8,1.5C7.7,1,8.7,0.6,9.7,0.4l0.5,1.8C9.3,2.4,8.5,2.7,7.7,3.1z M15.5,2.1
			c-0.9-0.2-1.8-0.3-2.7-0.3h-0.1V0h0.2c1,0,2.1,0.1,3.1,0.4L15.5,2.1z"/>
	</g>
</g>
</svg>
