<?xml version="1.0" encoding="UTF-8" standalone="no"?>
<svg width="28px" height="41px" viewBox="0 0 28 41" version="1.1" xmlns="http://www.w3.org/2000/svg" xmlns:xlink="http://www.w3.org/1999/xlink" xmlns:sketch="http://www.bohemiancoding.com/sketch/ns">
    <!-- Generator: Sketch 3.3.3 (12072) - http://www.bohemiancoding.com/sketch -->
    <title>Shape</title>
    <desc>Created with Sketch.</desc>
    <defs></defs>
    <g id="LARGE" stroke="none" stroke-width="1" fill="none" fill-rule="evenodd" sketch:type="MSPage">
        <g id="1.3.Homepage_Social_Sharing" sketch:type="MSArtboardGroup" transform="translate(-699.000000, -377.000000)" fill="#DD4B39">
            <g id="Group" sketch:type="MSLayerGroup" transform="translate(333.000000, 332.000000)">
                <g id="Oval-74-Copy-+-Shape-+-Shape" transform="translate(320.000000, 0.000000)" sketch:type="MSShapeGroup">
                    <path d="M67.7332558,67.5531383 C66.309476,66.5399827 65.0154585,65.0542021 64.9929303,64.5978747 C64.9929303,63.7667068 65.0668227,63.369231 66.922242,61.9169507 C69.3210405,60.0300728 70.6420918,57.5492449 70.6420918,54.9280782 C70.6420918,52.5513726 69.9193884,50.4399526 68.6893509,48.9568883 L69.6436437,48.9568883 C69.8409904,48.9568883 70.0347326,48.8953203 70.1924297,48.7794276 L72.8552583,46.8409413 C73.1859716,46.602818 73.3247451,46.1781799 73.1985874,45.7897583 C73.0715286,45.4022421 72.7146825,45.1378619 72.3082745,45.1378619 L60.3989879,45.1378619 C59.0959591,45.1378619 57.7722044,45.3687419 56.4727802,45.8178261 C52.1329554,47.3217148 49.0979616,51.0375243 49.0979616,54.8520236 C49.0979616,60.2564258 53.2647701,64.3525081 58.8346325,64.4810765 C58.7255962,64.9093363 58.6706275,65.3312581 58.6706275,65.7450312 C58.6706275,66.5780099 58.8805899,67.3666235 59.3131306,68.1289801 L59.1599391,68.1289801 C53.8505023,68.1289801 49.0583121,70.7465252 47.2389379,74.6416062 C46.7649454,75.6547618 46.5234435,76.6787824 46.5234435,77.6901272 C46.5234435,78.6734043 46.7748578,79.6195594 47.2677739,80.5086737 C48.4113033,82.5639581 50.8668728,84.1583881 54.1857213,85.0004209 C55.8987626,85.4350185 57.7397639,85.6568444 59.651053,85.6568444 C61.3685999,85.6568444 63.0059466,85.4341131 64.519839,84.994083 C69.2399391,83.6169519 72.2920543,80.1256846 72.2920543,76.0956973 C72.2911531,72.2286841 71.0539066,69.9135465 67.7332558,67.5531383 L67.7332558,67.5531383 Z M52.6925549,76.4053481 C52.6925549,73.592234 56.2493008,71.1249873 60.3034685,71.1249873 L60.4125048,71.1249873 C61.2947076,71.1358522 62.1552833,71.2662315 62.9662971,71.5161251 C63.2447451,71.7089778 63.5132808,71.8927764 63.7710029,72.0693316 C65.6489504,73.3550162 66.8898014,74.2033869 67.2349329,75.565126 C67.3160342,75.9082771 67.3565849,76.2514281 67.3565849,76.5837142 C67.3565849,80.0867519 64.7568352,81.8622641 59.6267226,81.8622641 C55.7383621,81.8622641 52.6925549,79.4665449 52.6925549,76.4053481 L52.6925549,76.4053481 Z M56.3817664,49.8251781 C57.0152583,49.0981325 57.8451957,48.714238 58.7769604,48.714238 L58.8823922,48.7160488 C61.5145824,48.7939142 64.0332307,51.7410291 64.4964097,55.2857158 C64.7568352,57.2703781 64.3170855,59.1364315 63.3240442,60.2736286 C62.6887501,61.002485 61.8705273,61.3863795 60.9009153,61.3863795 C60.9009153,61.3863795 60.9009153,61.3863795 60.8991131,61.3863795 L60.8567601,61.3863795 C58.2786375,61.3067033 55.7059216,58.2473173 55.245446,54.7071577 C54.9868227,52.7279278 55.4013409,50.9487939 56.3817664,49.8251781 L56.3817664,49.8251781 Z" id="Shape"></path>
                </g>
            </g>
        </g>
    </g>
</svg>