<?xml version="1.0" encoding="UTF-8" standalone="no"?>
<svg width="51px" height="43px" viewBox="0 0 51 43" version="1.1" xmlns="http://www.w3.org/2000/svg" xmlns:xlink="http://www.w3.org/1999/xlink" xmlns:sketch="http://www.bohemiancoding.com/sketch/ns">
    <!-- Generator: Sketch 3.3.3 (12072) - http://www.bohemiancoding.com/sketch -->
    <title>Shape</title>
    <desc>Created with Sketch.</desc>
    <defs></defs>
    <g id="LARGE" stroke="none" stroke-width="1" fill="none" fill-rule="evenodd" sketch:type="MSPage">
        <g id="1.3.Homepage_Social_Sharing" sketch:type="MSArtboardGroup" transform="translate(-536.000000, -377.000000)" fill="#00ACED">
            <g id="Group" sketch:type="MSLayerGroup" transform="translate(333.000000, 332.000000)">
                <g id="Oval-74-Copy-2-+-Shape" transform="translate(160.000000, 0.000000)" sketch:type="MSShapeGroup">
                    <path d="M93.7368421,50.8876139 C91.8813351,51.7250869 89.8844366,52.289991 87.7891788,52.5427934 C89.9284934,51.2423695 91.5688394,49.1824981 92.3423943,46.7252171 C90.3413975,47.9309701 88.1262643,48.8058953 85.7666659,49.2782093 C83.8783725,47.2349832 81.1868115,45.9574468 78.2083693,45.9574468 C72.490211,45.9574468 67.8540049,50.6649813 67.8540049,56.4721543 C67.8540049,57.2950625 67.9451921,58.097164 68.1224438,58.8680552 C59.5160059,58.4290321 51.8849644,54.2437479 46.7774533,47.8820742 C45.8860723,49.4342601 45.3758335,51.2402888 45.3758335,53.1690776 C45.3758335,56.8165065 47.2036769,60.0353157 49.9823269,61.9204102 C48.2856291,61.8652722 46.6883152,61.3919179 45.2918182,60.6043812 C45.2907937,60.6480755 45.2907937,60.69281 45.2907937,60.7375446 C45.2907937,65.8310449 48.8604162,70.0797899 53.5980553,71.0473053 C52.7292149,71.2865833 51.8142686,71.4155853 50.8696096,71.4155853 C50.2015861,71.4155853 49.5530296,71.350044 48.9208662,71.2262436 C50.2394954,75.4032051 54.0632128,78.4441164 58.5938876,78.5283839 C55.0498794,81.3487432 50.5858021,83.0299312 45.7334105,83.0299312 C44.8983811,83.0299312 44.0735975,82.9799949 43.2631579,82.8822031 C47.8471106,85.866936 53.289658,87.606383 59.1369128,87.606383 C78.184804,87.606383 88.5996184,71.5851606 88.5996184,57.6903914 C88.5996184,57.2347228 88.5903972,56.7800946 88.5709302,56.3285875 C90.5934431,54.8492252 92.3495663,52.9963813 93.7368421,50.8876139 L93.7368421,50.8876139 Z" id="Shape"></path>
                </g>
            </g>
        </g>
    </g>
</svg>